<?xml version="1.0" encoding="UTF-8"?>
<svg version="1.1" xmlns="http://www.w3.org/2000/svg" width="140" height="53">
<path d="M0 0 C2.05145046 1.57803881 2.28911682 2.73087612 2.625 5.25 C-1.63066547 6.41063604 -5.0585078 6.01173392 -9.375 5.25 C-8.56227401 7.43371009 -8.56227401 7.43371009 -6.37890625 8.03125 C-5.57324219 8.2684375 -4.76757812 8.505625 -3.9375 8.75 C0.40859909 10.03359909 0.40859909 10.03359909 2.625 12.25 C3.04152031 15.99868276 3.1229164 18.36733001 1.25 21.6875 C-2.74522887 24.06561242 -6.83104324 23.90238778 -11.375 23.25 C-12.365 22.59 -13.355 21.93 -14.375 21.25 C-15.035 21.91 -15.695 22.57 -16.375 23.25 C-18.04504829 22.93404492 -19.71137583 22.59820041 -21.375 22.25 C-24.10002965 22.62722015 -24.10002965 22.62722015 -26.375 23.25 C-27.69729189 20.60541621 -27.47177194 18.57238699 -27.4375 15.625 C-27.42847656 14.62210938 -27.41945313 13.61921875 -27.41015625 12.5859375 C-27.39855469 11.81507812 -27.38695312 11.04421875 -27.375 10.25 C-28.695 10.58 -30.015 10.91 -31.375 11.25 C-31.705 14.88 -32.035 18.51 -32.375 22.25 C-34.025 22.58 -35.675 22.91 -37.375 23.25 C-37.375 17.31 -37.375 11.37 -37.375 5.25 C-25.46853802 3.95581935 -25.46853802 3.95581935 -21.375 6.25 C-18.73695411 5.85602665 -18.73695411 5.85602665 -16.375 5.25 C-14.10793933 7.51706067 -14.63090776 13.36189811 -14.375 16.25 C-11.075 16.58 -7.775 16.91 -4.375 17.25 C-4.375 16.59 -4.375 15.93 -4.375 15.25 C-4.92929688 15.05664062 -5.48359375 14.86328125 -6.0546875 14.6640625 C-6.77914062 14.40367188 -7.50359375 14.14328125 -8.25 13.875 C-8.96929687 13.61976562 -9.68859375 13.36453125 -10.4296875 13.1015625 C-12.375 12.25 -12.375 12.25 -14.375 10.25 C-14.94117647 4.02205882 -14.94117647 4.02205882 -13 1.375 C-8.92791887 -1.44413309 -4.70573462 -1.48602146 0 0 Z " fill="#4D4D4D" transform="translate(81.375,13.75)"/>
<path d="M0 0 C3.55492191 0.23699479 5.51717586 0.60852097 8.3125 2.875 C12.79434893 8.51880977 11.75920527 18.09225337 11 25 C9.4856143 29.9960575 6.75241995 32.86126462 2.3125 35.5 C-3.53092781 37.9853899 -9.35752884 37.89744304 -15.3125 35.875 C-18.63558137 33.55657114 -20.62421504 31.28417332 -23 28 C-23 27.34 -23 26.68 -23 26 C-22.360625 26.309375 -21.72125 26.61875 -21.0625 26.9375 C-15.62887115 28.82263654 -10.96946094 29.73854785 -5.5 27.6875 C-2.91592301 26.24113012 -2.91592301 26.24113012 -2 24 C-1.85910218 22.27273078 -1.77417312 20.54071368 -1.71875 18.80859375 C-1.68136719 17.78185547 -1.64398437 16.75511719 -1.60546875 15.69726562 C-1.53503 13.52018637 -1.46471795 11.34310302 -1.39453125 9.16601562 C-1.35714844 8.14056641 -1.31976562 7.11511719 -1.28125 6.05859375 C-1.25095703 5.11298584 -1.22066406 4.16737793 -1.18945312 3.19311523 C-1 1 -1 1 0 0 Z " fill="#0EBEFF" transform="translate(32,10)"/>
<path d="M0 0 C0.97710937 -0.01417969 1.95421875 -0.02835938 2.9609375 -0.04296875 C5.625 0.1875 5.625 0.1875 8.625 2.1875 C8.955 3.1775 9.285 4.1675 9.625 5.1875 C10.470625 4.3625 11.31625 3.5375 12.1875 2.6875 C14.85346708 0.45743749 15.64421834 0.18521986 19.3125 -0.25 C22.625 0.1875 22.625 0.1875 25.625 2.1875 C25.295 3.8375 24.965 5.4875 24.625 7.1875 C21.985 7.1875 19.345 7.1875 16.625 7.1875 C16.625 9.1675 16.625 11.1475 16.625 13.1875 C19.595 13.1875 22.565 13.1875 25.625 13.1875 C25.625 14.8375 25.625 16.4875 25.625 18.1875 C22.18289151 19.90855424 18.38866353 19.70224617 14.625 19.1875 C12.0625 17.1875 12.0625 17.1875 10.625 15.1875 C9.965 16.5075 9.305 17.8275 8.625 19.1875 C7.305 19.1875 5.985 19.1875 4.625 19.1875 C3.30270811 16.54291621 3.52822806 14.50988699 3.5625 11.5625 C3.57152344 10.55960938 3.58054687 9.55671875 3.58984375 8.5234375 C3.60144531 7.75257812 3.61304687 6.98171875 3.625 6.1875 C2.305 6.5175 0.985 6.8475 -0.375 7.1875 C-0.705 10.8175 -1.035 14.4475 -1.375 18.1875 C-3.025 18.5175 -4.675 18.8475 -6.375 19.1875 C-6.40183987 16.20827407 -6.42176037 13.22928705 -6.4375 10.25 C-6.44587891 9.39986328 -6.45425781 8.54972656 -6.46289062 7.67382812 C-6.46611328 6.86494141 -6.46933594 6.05605469 -6.47265625 5.22265625 C-6.47789307 4.4737915 -6.48312988 3.72492676 -6.48852539 2.95336914 C-6.23938649 -0.92194633 -3.20625405 0.02103841 0 0 Z " fill="#535353" transform="translate(108.375,17.8125)"/>
<path d="M0 0 C5.35322621 0.66637671 7.49776698 1.79732037 11 6 C12.23759823 9.71279469 12.35608897 13.31306346 12.5625 17.1875 C12.60568359 17.93708984 12.64886719 18.68667969 12.69335938 19.45898438 C12.79922685 21.30578375 12.9000976 23.15286834 13 25 C13.66 25 14.32 25 15 25 C15 25.99 15 26.98 15 28 C8.81597718 29.33380884 8.81597718 29.33380884 5.25 27.875 C2.02522454 25.18768712 0.19435373 22.93240866 -0.23876953 18.62597656 C-0.29518203 15.80738437 -0.261313 13.00564242 -0.1875 10.1875 C-0.17396484 9.20845703 -0.16042969 8.22941406 -0.14648438 7.22070312 C-0.11125312 4.81323375 -0.06199265 2.40690436 0 0 Z " fill="#629AFF" transform="translate(7,9)"/>
<path d="M0 0 C0.99 0.33 1.98 0.66 3 1 C3.33 5.29 3.66 9.58 4 14 C5.32 14 6.64 14 8 14 C8 10.04 8 6.08 8 2 C9.32 1.34 10.64 0.68 12 0 C15.07873665 3.07873665 14.36851287 6.68992789 14.375 10.8125 C14.39949219 11.62009766 14.42398438 12.42769531 14.44921875 13.25976562 C14.46874868 17.23410695 14.26662417 19.51958502 12.3046875 23.0546875 C9.52783221 25.39854163 8.32570795 25.54774394 4.75 25.3125 C3.85796875 25.26738281 2.9659375 25.22226562 2.046875 25.17578125 C1.37140625 25.11777344 0.6959375 25.05976562 0 25 C-0.59732819 22.23735711 -1 19.83967231 -1 17 C-1.33 16.67 -1.66 16.34 -2 16 C-2.07313567 13.46950598 -2.09247527 10.96695163 -2.0625 8.4375 C-2.05798828 7.72658203 -2.05347656 7.01566406 -2.04882812 6.28320312 C-2.03700864 4.52209987 -2.01907263 2.76103964 -2 1 C-1.34 0.67 -0.68 0.34 0 0 Z M3 19 C3 19.33 3 19.66 3 20 C4.65 20 6.3 20 8 20 C8 19.67 8 19.34 8 19 C6.35 19 4.7 19 3 19 Z " fill="#4A4A4A" transform="translate(87,18)"/>
<path d="M0 0 C1.21236328 0.04060547 1.21236328 0.04060547 2.44921875 0.08203125 C3.06410156 0.11683594 3.67898437 0.15164062 4.3125 0.1875 C4.6425 1.8375 4.9725 3.4875 5.3125 5.1875 C2.6725 5.1875 0.0325 5.1875 -2.6875 5.1875 C-2.6875 7.1675 -2.6875 9.1475 -2.6875 11.1875 C0.2825 11.1875 3.2525 11.1875 6.3125 11.1875 C6.3125 12.8375 6.3125 14.4875 6.3125 16.1875 C2.85011913 17.91869043 -0.90167655 17.65820629 -4.6875 17.1875 C-7.25 15.625 -7.25 15.625 -8.6875 13.1875 C-9.070732 8.81865521 -9.15952172 5.13056867 -6.41796875 1.51171875 C-4.15364431 -0.22102614 -2.81589057 -0.12243002 0 0 Z " fill="#434343" transform="translate(127.6875,19.8125)"/>
<path d="M0 0 C0.99 0.33 1.98 0.66 3 1 C4.65 0.67 6.3 0.34 8 0 C8 5.94 8 11.88 8 18 C6.02 17.67 4.04 17.34 2 17 C1.34 11.39 0.68 5.78 0 0 Z " fill="#3B3B3B" transform="translate(57,19)"/>
<path d="M0 0 C2.31 0.33 4.62 0.66 7 1 C6.34 6.28 5.68 11.56 5 17 C3.35 17.33 1.7 17.66 0 18 C0 12.06 0 6.12 0 0 Z " fill="#414141" transform="translate(102,19)"/>
<path d="M0 0 C2.625 -0.1875 2.625 -0.1875 5 0 C7.61281488 5.87883349 7.18328202 11.70731728 7 18 C6.01 17.67 5.02 17.34 4 17 C3.67 13.04 3.34 9.08 3 5 C0.525 4.01 0.525 4.01 -2 3 C-1.34 2.01 -0.68 1.02 0 0 Z " fill="#353535" transform="translate(52,19)"/>
<path d="M0 0 C2.9375 0.25 2.9375 0.25 6 1 C6.66 1.99 7.32 2.98 8 4 C5.69 3.34 3.38 2.68 1 2 C1 8.6 1 15.2 1 22 C0.34 22 -0.32 22 -1 22 C-1.02887814 18.52085059 -1.04675687 15.04173169 -1.0625 11.5625 C-1.07087891 10.56927734 -1.07925781 9.57605469 -1.08789062 8.55273438 C-1.09111328 7.60849609 -1.09433594 6.66425781 -1.09765625 5.69140625 C-1.10289307 4.81685791 -1.10812988 3.94230957 -1.11352539 3.04125977 C-1 1 -1 1 0 0 Z " fill="#35C9FF" transform="translate(32,10)"/>
<path d="M0 0 C0.99 0.66 1.98 1.32 3 2 C2.67 3.32 2.34 4.64 2 6 C1.67 5.01 1.34 4.02 1 3 C-1.97 2.67 -4.94 2.34 -8 2 C-8.33 2.99 -8.66 3.98 -9 5 C-9.66 5 -10.32 5 -11 5 C-11.33 7.64 -11.66 10.28 -12 13 C-12.33 13 -12.66 13 -13 13 C-12.8114611 4.97852662 -12.8114611 4.97852662 -9.875 1.4375 C-6.30363543 -0.34818229 -3.94725863 -0.43858429 0 0 Z " fill="#606060" transform="translate(131,18)"/>
<path d="M0 0 C1.32 0.33 2.64 0.66 4 1 C4 5.95 4 10.9 4 16 C3.34 16.33 2.68 16.66 2 17 C1.34 11.39 0.68 5.78 0 0 Z " fill="#888888" transform="translate(57,19)"/>
<path d="M0 0 C1.2065625 0.0309375 1.2065625 0.0309375 2.4375 0.0625 C2.4375 1.7125 2.4375 3.3625 2.4375 5.0625 C0.7875 5.0625 -0.8625 5.0625 -2.5625 5.0625 C-3.125 3.125 -3.125 3.125 -3.5625 1.0625 C-2.5625 0.0625 -2.5625 0.0625 0 0 Z " fill="#525252" transform="translate(63.5625,12.9375)"/>
<path d="M0 0 C2.9719385 1.12451727 5.33440687 2.22293791 8 4 C6.68 4 5.36 4 4 4 C3.67 4.66 3.34 5.32 3 6 C0 2.25 0 2.25 0 0 Z " fill="#3DCAFF" transform="translate(9,36)"/>
<path d="M0 0 C0.66 0.33 1.32 0.66 2 1 C1.01 2.485 1.01 2.485 0 4 C-0.66 4 -1.32 4 -2 4 C-2.33 6.64 -2.66 9.28 -3 12 C-3.33 12 -3.66 12 -4 12 C-3.91253716 10.56138706 -3.80434652 9.12402492 -3.6875 7.6875 C-3.62949219 6.88699219 -3.57148437 6.08648437 -3.51171875 5.26171875 C-2.91793306 2.63727666 -2.04219706 1.69179328 0 0 Z " fill="#828282" transform="translate(122,19)"/>
</svg>
